# xmcd
#
# Track frame offsets:
#	150
#	20493
#	42875
#	60739
#	83637
#	113738
#	139567
#	165836
#	182901
#	204178
#	229160
#	246268
#
# Disc length: 3547 seconds
#
# Revision: 0
# Processed by: cddbd v1.4PL0 Copyright (c) Steve Scherf et al.
# Submitted via: EasyCDDAExtractor 4.6.0.1
#
DISCID=910dd90c
DTITLE=Diana Krall - The Look Of Love
DYEAR=1900
DGENRE=
TTITLE0=S'Wonderful
TTITLE1=Love Letters
TTITLE2=I Remember You
TTITLE3=Cry Me A River
TTITLE4=Besame Mucho
TTITLE5=The Night We Called it A Day
TTITLE6=Dancing in The Dark
TTITLE7=I Get Along Without You Very Well
TTITLE8=The Look Of Love
TTITLE9=Maybe You'll Be There
TTITLE10=The Man With The Bag
TTITLE11=Charmed Life
EXTD=
EXTT0=
EXTT1=
EXTT2=
EXTT3=
EXTT4=
EXTT5=
EXTT6=
EXTT7=
EXTT8=
EXTT9=
EXTT10=
EXTT11=
PLAYORDER=
